<svg xmlns="http://www.w3.org/2000/svg" viewBox="0 0 760.44 180.58"><path d="M388.15 92.82l10.74-12.86c7.43 6.14 15.22 10.03 24.66 10.03 7.43 0 11.92-2.95 11.92-7.79v-.24c0-4.6-2.83-6.96-16.64-10.5-16.64-4.25-27.38-8.85-27.38-25.25v-.24c0-14.99 12.04-24.9 28.91-24.9 12.04 0 22.3 3.78 30.68 10.5l-9.44 13.69c-7.32-5.07-14.51-8.14-21.48-8.14s-10.62 3.19-10.62 7.2v.24c0 5.43 3.54 7.2 17.82 10.86 16.76 4.37 26.2 10.38 26.2 24.78v.24c0 16.4-12.51 25.61-30.32 25.61-12.51 0-25.13-4.37-35.04-13.22zm76.47-70.56h33.75c19.71 0 31.62 11.68 31.62 28.55v.24c0 19.12-14.87 29.03-33.39 29.03h-13.81v24.78h-18.17v-82.6zm32.57 41.65c9.09 0 14.4-5.43 14.4-12.51v-.24c0-8.14-5.66-12.51-14.75-12.51H482.8V63.9h14.4zm152.8-24.9h-25.13V22.25h68.44v16.76h-25.13v65.84H650V39.01zm45.08 53.81l10.74-12.86c7.43 6.14 15.22 10.03 24.66 10.03 7.43 0 11.92-2.95 11.92-7.79v-.24c0-4.6-2.83-6.96-16.64-10.5-16.64-4.25-27.38-8.85-27.38-25.25v-.24c0-14.99 12.04-24.9 28.91-24.9 12.04 0 22.3 3.78 30.68 10.5l-9.44 13.69c-7.32-5.07-14.51-8.14-21.48-8.14s-10.62 3.19-10.62 7.2v.24c0 5.43 3.54 7.2 17.82 10.86 16.75 4.37 26.2 10.38 26.2 24.78v.24c0 16.4-12.51 25.61-30.33 25.61-12.51 0-25.13-4.37-35.04-13.22zM580.27 41c-.64.41-4.36.8-4.33.41.07-.45-.47-.48-.69-1.05.72-.85-.63-.42.1-1.35h-1.11c-.07.28-.01.39-.01.4-.03-.02-.14-.11-.5-.18-.27.67.64 1.11.51 1.73l-.37-.13c-.11.44-.03.34-.04 1.04-1.26-.23-.57-1.18-1.66-2.54.98-.77-2.03-2.28-1.6-2.76-2.12.56 1.69 2.75 1.1 3.26-.99-.55-.28.22-.87.87-.87.98-.79 1.31-2.12.81-.05-1.09 2.5-.12 1.33-2.11-.58-.98-1.14-2.16-2.24-1.44-1.04.68-2.92 1.07-3.72 2.55l-3.81 3.26c1.3 1.04 6.39-3.07 7.67-1.87-.08.85-1.08 1.49-1.1 2.36l.92.59c1.68-.37 1.23.78 2.48 1.08 2.08.51.49.13 1.8-1.16.43-.4 2.73-.36 2.83.35 1.02-.18 2.01.83 2.77.08.54-.53.99-.43 1.39-.13 1.85 1.32 1.23-3.82 1.28-4.08zm-12.57-.57l-.65.14c.17-.53.96-2.44 1.44-2.52-.03.68-.67 1.68-.78 2.38zm7.11 4.53c-.07-.45.97-.17 0 0zm2.69-8.94l.28-.32c-1 .36-.35-.71-1.28.36.25.81-.84 1.35-.37 2.22.97.81 1.93-.44 2.89-.59 0 .54 2 .47 2.3.54-.51-.12.1-.11.02-.02 1.75-1.11-3.77-2.17-3.83-2.2zm6.7-.1l.56-.54c-.32-1.37-1.75-.26-1.75.6.53.63 2.71 1.76 2.85 2.34-.5.2.13 1.69.92 1.64.56.47 1.19.56 1.88.27-.18-1.28-3.41-3.77-4.46-4.32z" fill="#333"/><path d="M579.08 20.84c-25.49 0-44.01 19.23-44.01 42.71v.24c0 23.48 18.29 42.48 43.78 42.48s44.01-19.23 44.01-42.71v-.24c0-23.48-18.29-42.48-43.78-42.48zm16.12 60.93l-.3 1.33-.14-.29c-1.89 1.52-1.87 5.84-4.45 6.91-1.38.57-1.21-1.27-.69-1.92.77-.97-.28-1.61.2-2.56l-.09-.06h-.01c-.47-.11-.92-1.27-.92-1.92.55-.1.84-.43.88-.23l.79-1.47c.17.97-1.24 2.86-.75 3.62h.01l.51-.32c0 .52.11 1 .32 1.47-.6-2.33 1.79-2.39 2.87-3.77.41-.54 1.08-2.01 1.6-2.23l.19 1.32-.02.1zm11.7-27.29c-.91-1.42-1.49-3.69-2.8-4.77l.1 1.19c-.69-.2-1.25-.59-1.65-1.19-.07-.27.7.37.28-.45-1.09.15-1.87-.97-2.76-1.58-1.57-.21-3.27 1.1-4.87.17-.37-.22-.72-1.48-1.31-.75l-1.08.26c-1.79-.54-2.56-2.05-4.18-2.1.02.68 1.17 1.68 1.72 1.99.72.41 1.22 2.19 1.31.6 1.03.59.3 1.89 1.76 1.41 1.11.43.81-1.33 1.05-1.85l.82 1.33c.58.53 1.41.33 1.95.87.68.7 1.07 1.7.9 2.55-.64-.04-.13.75-.53 1.38-.43.65-.39.78-.66 1.48-.75.19-1.64.53-1.51 1.5-.52.62-5.22 3.97-5.83 3.06-.77-1.14-.95-2.72-1.57-3.92-.92-.3-2.83-2.6-3.21-3.49.28-1.56-3.91-4.65-4.59-4.67.5 2.13 2.35 3.26 3.21 4.9.72 1.41 2.06 4.72 3.17 5.18 1.85-.18 2.99 3.15 3.99 3.83 1.29.88 3.93-1.99 5.06-1.7.13 1.51.1 1.96-.36 3.62-.94 3.41-2.53 4.89-4.57 7.65-1.18 1.58-1.94 2.71-2.83 4.46-.69 1.38 1.33 4.27.78 5.04.3 2.26-.26 3.58-2.23 4.7-1.45.83-2.69 1.62-2.21 3.18.5 1.56-1.48 1.8-1.71 2.68-.6 1.46-1.44 2.23-2.46 2.78-.68.04-1.36.1-2.04.1-1.24 0-2.46-.1-3.66-.23-1.61-1.98-3.27-4.08-4.98-6.05-1.05-1.18-2.46-3.33-.93-4.85.17-.98-1.02-3.25-1.56-4.13-.89-1.46-5-4.64-3.4-6.34.22-1.13-.78-2.25-.78-3.13-.87-.69-1.76.92-2.61-.54-.91-1.58-2.56-1.15-3.93-.18l-4.44.47c-2.89-2.55-3.81-6.54-2.8-9.96.41-1.42.46-3.95 1.61-4.9.38-1.47 2.1-2.92 3.02-4.14.48-.66 1.28-.71 1.85-1.38.86-.99 1.27-2.17 2.38-3.06 1.12-.87 3.51-2.35 1.48-2.67.81-1.17 2.1-2.45 2.58-3.86.7-.54 2-.32 2.79-.7.09-.19.18-.34.25-.48l-.39.32.04-.07.36-.26c.48-.87.65-.95.44-1.7.14-.56 1.93-.98 2.31-1.12.71-.27 1.34-.92 1.98-1.39 2.68-.75 5.49-1.17 8.4-1.17 15.47 0 28.3 11.2 30.71 25.81-.71-1.34-1.33-2.91-1.85-3.7z" fill="#333"/><path d="M588.39 36.11c-.51-.12-1.06-1.25-1.6-1.41l-.09.46c.2.33 1.1 1.58 1.69.95zM148.08 22.26h62.3v16.17h-44.25v16.76h38.94v16.17h-38.94v17.35h44.84v16.17h-62.89V22.26zm74.34 0h32.21c25.96 0 43.89 17.82 43.89 41.06v.24c0 23.25-17.94 41.3-43.89 41.3h-32.21v-82.6zm32.21 66.2c14.87 0 24.9-10.03 24.9-24.66v-.24c0-14.63-10.03-24.9-24.9-24.9h-14.04v49.79h14.04zm54.05-19.01V22.26h18.17v46.73c0 13.45 6.73 20.41 17.82 20.41s17.82-6.73 17.82-19.82V22.26h18.17v46.61c0 25.02-14.04 37.29-36.22 37.29s-35.75-12.39-35.75-36.7z" fill="#333"/><path d="M148.08 141.24v-.12c0-11.65 9.19-21.2 21.85-21.2s21.73 9.43 21.73 21.08v.12c0 11.66-9.19 21.2-21.85 21.2s-21.73-9.43-21.73-21.08zm34.14 0v-.12c0-7.03-5.15-12.88-12.42-12.88s-12.3 5.74-12.3 12.77v.12c0 7.03 5.15 12.89 12.42 12.89s12.3-5.74 12.3-12.77zm15.12 9.31v-20.32h8.9v17.51c0 4.22 1.99 6.38 5.39 6.38s5.56-2.17 5.56-6.38v-17.51h8.9v31.39h-8.9v-4.45c-2.05 2.63-4.68 5.04-9.19 5.04-6.73 0-10.66-4.45-10.66-11.66zm35.56-20.32h8.9v6.33c1.82-4.33 4.74-7.14 10.01-6.91v9.31h-.47c-5.91 0-9.55 3.57-9.55 11.07v11.6h-8.9v-31.39zm38.83 11.01v-.12c0-11.65 8.79-21.2 21.38-21.2 7.73 0 12.36 2.58 16.16 6.32l-5.74 6.62c-3.16-2.87-6.38-4.63-10.48-4.63-6.91 0-11.89 5.74-11.89 12.77v.12c0 7.03 4.86 12.89 11.89 12.89 4.68 0 7.56-1.87 10.78-4.8l5.74 5.8c-4.22 4.51-8.9 7.32-16.81 7.32-12.06 0-21.03-9.31-21.03-21.08zm40.83 4.86v-.12c0-9.02 7.26-16.34 17.04-16.34s16.93 7.2 16.93 16.22v.12c0 9.02-7.26 16.34-17.04 16.34s-16.93-7.2-16.93-16.22zm25.18 0v-.12c0-4.63-3.34-8.67-8.26-8.67s-8.14 3.92-8.14 8.55v.12c0 4.63 3.34 8.67 8.26 8.67s8.14-3.92 8.14-8.55zm14.48-27.23h8.9v42.75h-8.9v-42.75zm16.51 0h8.9v42.75h-8.9v-42.75zm14.59 27.23v-.12c0-8.96 6.38-16.34 15.52-16.34 10.48 0 15.29 8.14 15.29 17.04 0 .7-.06 1.52-.12 2.34h-21.85c.88 4.04 3.69 6.15 7.67 6.15 2.99 0 5.15-.94 7.61-3.22l5.1 4.51c-2.93 3.63-7.14 5.86-12.83 5.86-9.43 0-16.4-6.62-16.4-16.22zm22.14-2.63c-.53-3.98-2.87-6.68-6.62-6.68s-6.09 2.64-6.79 6.68h13.41zm12.59 2.63v-.12c0-8.96 6.85-16.34 16.46-16.34 5.91 0 9.6 1.99 12.53 5.27l-5.45 5.86c-1.99-2.11-3.98-3.46-7.14-3.46-4.45 0-7.61 3.92-7.61 8.55v.12c0 4.8 3.1 8.67 7.96 8.67 2.99 0 5.04-1.29 7.2-3.34l5.21 5.27c-3.05 3.34-6.56 5.74-12.83 5.74-9.43 0-16.34-7.26-16.34-16.22zm35.27 6.62v-14.88h-3.75v-7.61h3.75v-8.02h8.9v8.02h7.38v7.61h-7.38v13.41c0 2.05.88 3.05 2.87 3.05 1.64 0 3.1-.41 4.39-1.11v7.14c-1.87 1.11-4.04 1.82-7.03 1.82-5.45 0-9.14-2.17-9.14-9.43zm21.84-33.85h9.37v7.91h-9.37v-7.91zm.23 11.36h8.9v31.39h-8.9v-31.39zm13.31 0h9.43l7.03 21.03 7.09-21.03h9.25l-12.36 31.63h-8.08l-12.36-31.63zm33.5 15.87v-.12c0-8.96 6.38-16.34 15.52-16.34 10.48 0 15.29 8.14 15.29 17.04 0 .7-.06 1.52-.12 2.34h-21.85c.88 4.04 3.69 6.15 7.67 6.15 2.99 0 5.15-.94 7.61-3.22l5.1 4.51c-2.93 3.63-7.14 5.86-12.83 5.86-9.43 0-16.4-6.62-16.4-16.22zm22.14-2.63c-.53-3.98-2.87-6.68-6.62-6.68s-6.09 2.64-6.79 6.68h13.41zm31.46-22.85h31.22v8.2h-22.2v8.73h19.56v8.2h-19.56v15.87h-9.02v-41zm36.08 29.93v-20.32h8.9v17.51c0 4.22 1.99 6.38 5.39 6.38s5.56-2.17 5.56-6.38v-17.51h8.9v31.39h-8.9v-4.45c-2.05 2.63-4.69 5.04-9.2 5.04-6.73 0-10.66-4.45-10.66-11.66zm37.02 2.17v-14.88h-3.75v-7.61h3.75v-8.02h8.9v8.02h7.38v7.61h-7.38v13.41c0 2.05.88 3.05 2.87 3.05 1.64 0 3.1-.41 4.39-1.11v7.14c-1.87 1.11-4.04 1.82-7.03 1.82-5.45 0-9.14-2.17-9.14-9.43zm21.44-2.17v-20.32h8.9v17.51c0 4.22 1.99 6.38 5.39 6.38s5.56-2.17 5.56-6.38v-17.51h8.9v31.39h-8.9v-4.45c-2.05 2.63-4.68 5.04-9.2 5.04-6.73 0-10.66-4.45-10.66-11.66zm35.55-20.32h8.9v6.33c1.81-4.33 4.74-7.14 10.01-6.91v9.31h-.47c-5.91 0-9.55 3.57-9.55 11.07v11.6h-8.9v-31.39zm20.91 15.87v-.12c0-8.96 6.38-16.34 15.52-16.34 10.48 0 15.28 8.14 15.28 17.04 0 .7-.06 1.52-.12 2.34h-21.84c.88 4.04 3.69 6.15 7.67 6.15 2.99 0 5.15-.94 7.61-3.22l5.1 4.51c-2.93 3.63-7.15 5.86-12.83 5.86-9.43 0-16.4-6.62-16.4-16.22zm22.14-2.63c-.53-3.98-2.87-6.68-6.62-6.68s-6.09 2.64-6.79 6.68h13.41z" fill="#828282"/><path d="M119.78 59.45c.2 13.74-4.23 26.42-11.83 36.63-.05.06-.09.12-.13.18-24.65 33.21-39.99 41.68-44.47 81.23-.2 1.76-1.68 3.1-3.46 3.1-1.77 0-3.26-1.34-3.46-3.1-4.48-39.54-19.82-48.02-44.47-81.23-.05-.06-.09-.12-.13-.18A59.702 59.702 0 010 60.33C0 27.32 26.7.55 59.68.43c32.64-.11 59.63 26.38 60.1 59.01z" fill="#29abe2"/><path d="M83.57 95.98l-1.52 2.86c-.09-.39-.64.26-1.7.45 0 1.27.87 3.53 1.77 3.74-.95-1.48 1.77-5.16 1.44-7.06zm-1.44 7.07l.02-.02h-.02v.02zm7.17-5.14c-2.09 2.69-6.7 2.82-5.55 7.36-.41-.9-.62-1.85-.62-2.86l-.98.62.17.11c-.93 1.85 1.11 3.1-.38 4.99-1 1.27-1.33 4.86 1.33 3.74 4.97-2.09 4.93-10.52 8.58-13.49l.28.56.58-2.6.04-.19-.37-2.58c-1.01.43-2.3 3.29-3.1 4.34zM38.38 15.96l1.26-.26c.22-1.38 1.45-3.31 1.51-4.65-.92.16-2.45 3.87-2.77 4.91zm14.99 8.58c1.87-.34-.13-.88 0 0z" fill="#006837"/><path d="M118.86 50.34C114.21 21.85 89.43 0 59.57 0c-5.61 0-11.04.83-16.21 2.29-1.24.91-2.46 2.17-3.83 2.71-.74.27-4.19 1.1-4.46 2.19.42 1.46.08 1.61-.84 3.31l-.7.52-.07.13.76-.62c-.15.27-.31.58-.49.94-1.52.74-4.04.3-5.38 1.36-.93 2.75-3.41 5.24-4.97 7.53 3.93.62-.69 3.51-2.85 5.21-2.13 1.73-2.93 4.03-4.59 5.97-1.1 1.3-2.64 1.41-3.57 2.68-1.78 2.37-5.11 5.2-5.83 8.08-2.21 1.86-2.3 6.79-3.1 9.55-1.93 6.67-.16 14.46 5.41 19.43l8.57-.92c2.64-1.89 5.82-2.73 7.58.35 1.64 2.85 3.36-.29 5.05 1.05 0 1.72 1.93 3.91 1.5 6.11-3.09 3.32 4.85 9.52 6.56 12.38 1.03 1.71 3.33 6.15 3.01 8.05-2.95 2.97-.23 7.16 1.79 9.46 3.31 3.86 6.52 7.95 9.62 11.81 2.32.26 4.68.45 7.06.45 1.32 0 2.63-.1 3.94-.19 1.96-1.07 3.58-2.58 4.74-5.42.45-1.72 4.26-2.19 3.3-5.23-.94-3.05 1.46-4.58 4.26-6.21 3.81-2.19 4.89-4.77 4.31-9.18 1.07-1.5-2.84-7.14-1.5-9.83 1.7-3.41 3.18-5.61 5.46-8.69 3.94-5.39 7-8.27 8.82-14.92.89-3.25.96-4.13.7-7.07-2.18-.56-7.28 5.04-9.77 3.32-1.91-1.34-4.12-7.82-7.69-7.48-2.14-.9-4.72-7.35-6.12-10.1-1.66-3.2-5.25-5.4-6.2-9.55 1.31.04 9.41 6.05 8.86 9.1.73 1.74 4.41 6.24 6.19 6.82 1.2 2.35 1.56 5.43 3.04 7.66 1.19 1.78 10.25-4.76 11.26-5.97-.26-1.9 1.46-2.56 2.91-2.93.53-1.36.45-1.64 1.28-2.89.77-1.22-.21-2.77 1.02-2.68.33-1.65-.42-3.6-1.73-4.97-1.04-1.06-2.64-.66-3.76-1.7l-1.59-2.6c-.45 1.03.13 4.46-2.02 3.62-2.82.94-1.41-1.59-3.4-2.75-.18 3.11-1.15-.36-2.53-1.16-1.06-.6-3.28-2.56-3.31-3.88 3.12.08 4.61 3.04 8.06 4.09l2.09-.51c1.12-1.43 1.81 1.05 2.52 1.47 3.08 1.81 6.37-.74 9.4-.34 1.71 1.2 3.23 3.37 5.33 3.08.82 1.6-.66.35-.54.88.78 1.17 1.86 1.92 3.18 2.32l-.2-2.32c2.54 2.11 3.66 6.54 5.41 9.31.99 1.55 2.2 4.6 3.56 7.23zM76.49 4.52c1.04.31 2.1 2.52 3.09 2.75-1.15 1.22-2.88-1.22-3.27-1.86l.18-.89zM61.44 24.76c-.78-.58-1.63-.77-2.68.26-1.46 1.47-3.36-.51-5.34-.16-.2-1.38-4.64-1.47-5.47-.68-2.53 2.52.54 3.26-3.48 2.27-2.41-.58-1.53-2.82-4.78-2.11l-1.78-1.15c.04-1.69 1.97-2.95 2.12-4.6-2.47-2.35-12.3 5.66-14.8 3.64l7.36-6.37c1.56-2.88 5.18-3.65 7.19-4.97 2.12-1.41 3.21.88 4.32 2.8 2.26 3.87-2.67 1.98-2.56 4.11 2.56.98 2.42.34 4.1-1.58 1.15-1.28-.22-2.77 1.68-1.7 1.14-.99-6.22-5.26-2.12-6.36-.82.94 4.98 3.88 3.09 5.39 2.09 2.64.77 4.5 3.2 4.95.02-1.36-.14-1.17.08-2.02l.71.25c.24-1.2-1.51-2.07-.99-3.37.69.15.9.31.97.36 0-.03-.12-.24.02-.79h2.13c-1.4 1.81 1.21.99-.19 2.64.41 1.11 1.45 1.17 1.32 2.05-.05.76 7.12 0 8.36-.81-.09.49 1.1 10.53-2.47 7.95zm4.53-13.37c.15-.18-1.02-.21-.04.03-.58-.15-4.44 0-4.44-1.06-1.84.29-3.7 2.73-5.57 1.14-.9-1.68 1.19-2.75.71-4.32 1.81-2.09.56 0 2.48-.7l-.55.62c.13.06 10.77 2.13 7.4 4.29zm10.52 3.4c-1.53.1-2.74-2.81-1.78-3.2-.26-1.14-4.47-3.34-5.5-4.57 0-1.69 2.76-3.84 3.37-1.17L71.5 6.91c2.03 1.07 8.26 5.93 8.61 8.42-1.33.56-2.55.39-3.63-.53z" fill="#006837"/></svg>